# xmcd
#
# Track frame offsets: 
#        150
#        17740
#        29511
#        53998
#        76647
#        91370
#        107241
#        122921
#        144206
#
# Disc length: 2236 seconds
#
# Revision: 0
# Processed by: cddbd v1.5.2PL0 Copyright (c) Steve Scherf et al.
# Submitted via: ExactAudioCopy v0.99pb3
#
DISCID=6d08ba09
DTITLE=Charlie Morris - Still Got 'Em
DYEAR=2002
DGENRE=Blues
TTITLE0=Still Got 'Em
TTITLE1=Cain't Hep M'sef
TTITLE2=Mr. Miracle Meets His Match
TTITLE3=Ready For Saturday Night
TTITLE4=Another Train Song
TTITLE5=The First One
TTITLE6=Not Much Glory, Not Much Gold
TTITLE7=That Word
TTITLE8=Jenny
EXTD=
EXTT0=
EXTT1=
EXTT2=
EXTT3=
EXTT4=
EXTT5=
EXTT6=
EXTT7=
EXTT8=
PLAYORDER=
